<?xml version="1.0" encoding="utf-8"?>
<!-- Generator: Adobe Illustrator 24.1.0, SVG Export Plug-In . SVG Version: 6.00 Build 0)  -->
<svg version="1.1" id="Layer_1" xmlns="http://www.w3.org/2000/svg" xmlns:xlink="http://www.w3.org/1999/xlink" x="0px" y="0px"
	 viewBox="0 0 26 26" style="enable-background:new 0 0 26 26;" xml:space="preserve">
<style type="text/css">
	.st0{fill-rule:evenodd;clip-rule:evenodd;fill:#182632;stroke:#182632;stroke-width:2;}
	.st1{fill-rule:evenodd;clip-rule:evenodd;fill:#FFFFFF;}
</style>
<g transform="translate(1 1)">
	<path class="st0" d="M0,24h24V0H0V24z"/>
	<path class="st1" d="M9,13.7l7.8-8.2c0.7-0.7,1.8-0.7,2.5-0.1c0,0,0,0,0,0l0.1,0.1c0.7,0.7,0.7,1.8,0,2.5L9,19l-5.5-5.7
		c-0.7-0.7-0.7-1.8,0-2.5l0.1-0.1c0.7-0.7,1.8-0.7,2.5-0.1c0,0,0,0,0,0L9,13.7"/>
</g>
</svg>
